<mxfile host="app.diagrams.net" agent="Mozilla/5.0 (Windows NT 10.0; Win64; x64) AppleWebKit/537.36 (KHTML, like Gecko) Chrome/137.0.0.0 Safari/537.36" version="27.1.6">
  <diagram name="Сторінка-1" id="ytLEhvGYOJ3w0qEwgIKS">
    <mxGraphModel dx="786" dy="497" grid="1" gridSize="10" guides="1" tooltips="1" connect="1" arrows="1" fold="1" page="1" pageScale="1" pageWidth="827" pageHeight="1169" math="0" shadow="0">
      <root>
        <mxCell id="0" />
        <mxCell id="1" parent="0" />
        <mxCell id="tm_tchVYL2sZG5s4HK-J-1" value="&lt;strong data-end=&quot;62&quot; data-start=&quot;52&quot;&gt;Client&lt;/strong&gt; sends a request to the &lt;strong data-end=&quot;107&quot; data-start=&quot;86&quot;&gt;Logistics Manager&lt;/strong&gt;" style="rounded=1;whiteSpace=wrap;html=1;" vertex="1" parent="1">
          <mxGeometry x="40" y="70" width="120" height="70" as="geometry" />
        </mxCell>
        <mxCell id="tm_tchVYL2sZG5s4HK-J-2" value="" style="points=[[0.145,0.145,0],[0.5,0,0],[0.855,0.145,0],[1,0.5,0],[0.855,0.855,0],[0.5,1,0],[0.145,0.855,0],[0,0.5,0]];shape=mxgraph.bpmn.event;html=1;verticalLabelPosition=bottom;labelBackgroundColor=#ffffff;verticalAlign=top;align=center;perimeter=ellipsePerimeter;outlineConnect=0;aspect=fixed;outline=catching;symbol=message;" vertex="1" parent="1">
          <mxGeometry x="90" y="130" width="20" height="20" as="geometry" />
        </mxCell>
        <mxCell id="tm_tchVYL2sZG5s4HK-J-3" value="&lt;strong data-end=&quot;130&quot; data-start=&quot;109&quot;&gt;Logistics Manager&lt;/strong&gt; manually starts searching for a &lt;strong data-end=&quot;174&quot; data-start=&quot;163&quot;&gt;Carrier&lt;/strong&gt;" style="rounded=1;whiteSpace=wrap;html=1;" vertex="1" parent="1">
          <mxGeometry x="130" y="155" width="120" height="70" as="geometry" />
        </mxCell>
        <mxCell id="tm_tchVYL2sZG5s4HK-J-5" value="" style="endArrow=classic;html=1;rounded=0;exitX=0.5;exitY=1;exitDx=0;exitDy=0;exitPerimeter=0;entryX=0;entryY=0.5;entryDx=0;entryDy=0;" edge="1" parent="1" source="tm_tchVYL2sZG5s4HK-J-2" target="tm_tchVYL2sZG5s4HK-J-3">
          <mxGeometry width="50" height="50" relative="1" as="geometry">
            <mxPoint x="330" y="270" as="sourcePoint" />
            <mxPoint x="380" y="220" as="targetPoint" />
            <Array as="points">
              <mxPoint x="100" y="190" />
            </Array>
          </mxGeometry>
        </mxCell>
        <mxCell id="tm_tchVYL2sZG5s4HK-J-6" value="&lt;p data-end=&quot;220&quot; data-start=&quot;176&quot;&gt;&lt;strong data-end=&quot;188&quot; data-start=&quot;176&quot;&gt;Carriers&lt;/strong&gt; send rate offers via messengers&lt;/p&gt;&lt;p data-end=&quot;271&quot; data-start=&quot;222&quot;&gt;&lt;/p&gt;" style="rounded=1;whiteSpace=wrap;html=1;" vertex="1" parent="1">
          <mxGeometry x="294" y="160" width="120" height="60" as="geometry" />
        </mxCell>
        <mxCell id="tm_tchVYL2sZG5s4HK-J-7" value="" style="endArrow=classic;html=1;rounded=0;exitX=1;exitY=0.5;exitDx=0;exitDy=0;entryX=0;entryY=0.5;entryDx=0;entryDy=0;" edge="1" parent="1" source="tm_tchVYL2sZG5s4HK-J-3" target="tm_tchVYL2sZG5s4HK-J-6">
          <mxGeometry width="50" height="50" relative="1" as="geometry">
            <mxPoint x="330" y="270" as="sourcePoint" />
            <mxPoint x="380" y="220" as="targetPoint" />
          </mxGeometry>
        </mxCell>
        <mxCell id="tm_tchVYL2sZG5s4HK-J-8" value="&lt;p data-end=&quot;271&quot; data-start=&quot;222&quot;&gt;&lt;strong data-end=&quot;243&quot; data-start=&quot;222&quot;&gt;Logistics Manager&lt;/strong&gt; analyzes and selects a rate&lt;/p&gt;&lt;p data-end=&quot;300&quot; data-start=&quot;273&quot;&gt;&lt;/p&gt;" style="rounded=1;whiteSpace=wrap;html=1;" vertex="1" parent="1">
          <mxGeometry x="390" y="240" width="120" height="60" as="geometry" />
        </mxCell>
        <mxCell id="tm_tchVYL2sZG5s4HK-J-9" value="" style="endArrow=classic;html=1;rounded=0;exitX=0.5;exitY=1;exitDx=0;exitDy=0;entryX=0;entryY=0.5;entryDx=0;entryDy=0;" edge="1" parent="1" source="tm_tchVYL2sZG5s4HK-J-6" target="tm_tchVYL2sZG5s4HK-J-8">
          <mxGeometry width="50" height="50" relative="1" as="geometry">
            <mxPoint x="330" y="270" as="sourcePoint" />
            <mxPoint x="380" y="220" as="targetPoint" />
            <Array as="points">
              <mxPoint x="354" y="270" />
            </Array>
          </mxGeometry>
        </mxCell>
        <mxCell id="tm_tchVYL2sZG5s4HK-J-10" value="&lt;p data-end=&quot;300&quot; data-start=&quot;273&quot;&gt;Sends it to the &lt;strong data-end=&quot;300&quot; data-start=&quot;289&quot;&gt;Manager&lt;/strong&gt;&lt;/p&gt;&lt;p data-end=&quot;319&quot; data-start=&quot;302&quot;&gt;&lt;/p&gt;" style="rounded=1;whiteSpace=wrap;html=1;" vertex="1" parent="1">
          <mxGeometry x="540" y="240" width="120" height="60" as="geometry" />
        </mxCell>
        <mxCell id="tm_tchVYL2sZG5s4HK-J-11" value="" style="endArrow=classic;html=1;rounded=0;exitX=1;exitY=0.5;exitDx=0;exitDy=0;entryX=0;entryY=0.5;entryDx=0;entryDy=0;" edge="1" parent="1" source="tm_tchVYL2sZG5s4HK-J-8" target="tm_tchVYL2sZG5s4HK-J-10">
          <mxGeometry width="50" height="50" relative="1" as="geometry">
            <mxPoint x="410" y="260" as="sourcePoint" />
            <mxPoint x="460" y="210" as="targetPoint" />
          </mxGeometry>
        </mxCell>
        <mxCell id="tm_tchVYL2sZG5s4HK-J-14" value="" style="endArrow=classic;html=1;rounded=0;entryX=0;entryY=0.5;entryDx=0;entryDy=0;exitX=0.5;exitY=1;exitDx=0;exitDy=0;" edge="1" parent="1" source="tm_tchVYL2sZG5s4HK-J-10" target="tm_tchVYL2sZG5s4HK-J-20">
          <mxGeometry relative="1" as="geometry">
            <mxPoint x="480" y="400" as="sourcePoint" />
            <mxPoint x="630" y="360" as="targetPoint" />
            <Array as="points">
              <mxPoint x="600" y="350" />
            </Array>
          </mxGeometry>
        </mxCell>
        <mxCell id="tm_tchVYL2sZG5s4HK-J-15" value="Label" style="edgeLabel;resizable=0;html=1;;align=center;verticalAlign=middle;" connectable="0" vertex="1" parent="tm_tchVYL2sZG5s4HK-J-14">
          <mxGeometry relative="1" as="geometry" />
        </mxCell>
        <mxCell id="tm_tchVYL2sZG5s4HK-J-18" value="Text" style="edgeLabel;html=1;align=center;verticalAlign=middle;resizable=0;points=[];" vertex="1" connectable="0" parent="tm_tchVYL2sZG5s4HK-J-14">
          <mxGeometry x="-0.019" y="3" relative="1" as="geometry">
            <mxPoint as="offset" />
          </mxGeometry>
        </mxCell>
        <mxCell id="tm_tchVYL2sZG5s4HK-J-19" value="3-4 hours" style="edgeLabel;html=1;align=center;verticalAlign=middle;resizable=0;points=[];" vertex="1" connectable="0" parent="tm_tchVYL2sZG5s4HK-J-14">
          <mxGeometry x="0.017" y="1" relative="1" as="geometry">
            <mxPoint as="offset" />
          </mxGeometry>
        </mxCell>
        <mxCell id="tm_tchVYL2sZG5s4HK-J-20" value="&lt;strong data-end=&quot;342&quot; data-start=&quot;321&quot;&gt;Logistics Manager&lt;/strong&gt; receives a response from the &lt;strong data-end=&quot;383&quot; data-start=&quot;372&quot;&gt;Manager&lt;/strong&gt;" style="rounded=1;whiteSpace=wrap;html=1;" vertex="1" parent="1">
          <mxGeometry x="650" y="320" width="120" height="60" as="geometry" />
        </mxCell>
        <mxCell id="tm_tchVYL2sZG5s4HK-J-21" value="&lt;p data-end=&quot;447&quot; data-start=&quot;385&quot;&gt;Inputs the decision into a spreadsheet/CRM and signs the order&lt;/p&gt;" style="rounded=1;whiteSpace=wrap;html=1;strokeWidth=2;" vertex="1" parent="1">
          <mxGeometry x="650" y="410" width="120" height="70" as="geometry" />
        </mxCell>
        <mxCell id="tm_tchVYL2sZG5s4HK-J-22" value="" style="endArrow=classic;html=1;rounded=0;exitX=0.5;exitY=1;exitDx=0;exitDy=0;entryX=0.5;entryY=0;entryDx=0;entryDy=0;" edge="1" parent="1" source="tm_tchVYL2sZG5s4HK-J-20" target="tm_tchVYL2sZG5s4HK-J-21">
          <mxGeometry width="50" height="50" relative="1" as="geometry">
            <mxPoint x="560" y="330" as="sourcePoint" />
            <mxPoint x="610" y="280" as="targetPoint" />
          </mxGeometry>
        </mxCell>
      </root>
    </mxGraphModel>
  </diagram>
</mxfile>
